<svg width="1200" height="802" viewBox="0 0 1200 802" fill="none" xmlns="http://www.w3.org/2000/svg">
    <g filter="url(#filter0_d)">
        <path d="M412 0C412 0 358.953 82.6501 210 86C61.0468 89.3499 0 148 0 148L-1 780C-1 780 288.574 729 601.063 729C913.552 729 1200 780 1200 780V0H412Z" fill="#C4C4C4"/>
        <path d="M412 0C412 0 358.953 82.6501 210 86C61.0468 89.3499 0 148 0 148L-1 780C-1 780 288.574 729 601.063 729C913.552 729 1200 780 1200 780V0H412Z" fill="url(#paint0_linear)"/>
    </g>
    <defs>
        <filter id="filter0_d" x="-13" y="-2" width="1225" height="804" filterUnits="userSpaceOnUse" color-interpolation-filters="sRGB">
            <feFlood flood-opacity="0" result="BackgroundImageFix"/>
            <feColorMatrix in="SourceAlpha" type="matrix" values="0 0 0 0 0 0 0 0 0 0 0 0 0 0 0 0 0 0 127 0"/>
            <feOffset dy="10"/>
            <feGaussianBlur stdDeviation="6"/>
            <feColorMatrix type="matrix" values="0 0 0 0 0 0 0 0 0 0 0 0 0 0 0 0 0 0 0.25 0"/>
            <feBlend mode="normal" in2="BackgroundImageFix" result="effect1_dropShadow"/>
            <feBlend mode="normal" in="SourceGraphic" in2="effect1_dropShadow" result="shape"/>
        </filter>
        <linearGradient id="paint0_linear" x1="1200" y1="383" x2="-1.00022" y2="384.085" gradientUnits="userSpaceOnUse">
            <stop stop-color="#40FDEC"/>
            <stop offset="0.9999" stop-color="#2DA8FF"/>
            <stop offset="1" stop-color="white" stop-opacity="0"/>
        </linearGradient>
    </defs>
</svg>
