<svg width="141" height="128" viewBox="0 0 141 128" fill="none" xmlns="http://www.w3.org/2000/svg">
    <path d="M41.0312 11.2198L52.3648 60.5521C52.5012 61.1458 52.3596 61.7692 51.9801 62.2458C51.6007 62.7223 51.0247 62.9999 50.4156 62.9999H48.0726C47.1388 62.9999 46.3292 62.3537 46.1223 61.4431L37.8439 25.0185L37.8439 25.0184C36.9223 20.9627 32.8887 18.4221 28.8309 19.3435L41.0312 11.2198ZM41.0312 11.2198C41.0312 11.2198 41.0312 11.2198 41.0312 11.2197C40.1 7.16581 42.6312 3.12481 46.6849 2.19359L46.6852 2.19352C50.7388 1.26163 54.7797 3.79327 55.7111 7.84726L55.7111 7.84729L68.0254 61.4477C68.2341 62.3561 69.0426 62.9999 69.9747 62.9999H73.5739C74.4916 62.9999 75.2916 62.3753 75.5142 61.485L87.0529 15.3294L87.053 15.3293C88.0616 11.2942 92.1506 8.84084 96.1859 9.84968C100.221 10.8585 102.675 14.9474 101.666 18.9825L101.666 18.9826L91.2828 60.5148C91.1334 61.1123 91.2676 61.7453 91.6466 62.2307C92.0256 62.7162 92.6072 62.9999 93.223 62.9999H95.8632C96.7894 62.9999 97.5944 62.364 97.8088 61.463L105.14 30.6617M41.0312 11.2198L105.14 30.6617M105.14 30.6617C106.104 26.615 110.165 24.1156 114.211 25.0797L114.211 25.0797C118.258 26.0432 120.757 30.1042 119.793 34.1505L119.793 34.1507L111.145 70.4806M105.14 30.6617L111.145 70.4806M111.145 70.4806C111.145 70.4807 111.145 70.4807 111.145 70.4807C110.696 72.3682 110.469 74.3017 110.469 76.2419V86.2742C110.469 88.2831 110.179 90.2815 109.608 92.2076L111.525 92.7761M111.145 70.4806L111.525 92.7761M111.525 92.7761L109.608 92.2077L103.371 113.245L103.371 113.245C102.183 117.252 98.5018 120 94.3227 120H42.6934C40.2893 120 37.9758 119.082 36.2251 117.435L4.36952 87.4529C1.34069 84.6022 1.19639 79.8358 4.04704 76.8069L2.59061 75.4362M111.525 92.7761L2.59061 75.4362M2.59061 75.4362L4.04705 76.8069C6.89728 73.7783 11.6636 73.6335 14.693 76.4844C14.693 76.4844 14.6931 76.4844 14.6931 76.4845L29.1293 90.0714C29.7103 90.6183 30.5608 90.7675 31.2933 90.451M2.59061 75.4362L31.2933 90.451M31.2933 90.451C32.0258 90.1345 32.5 89.4129 32.5 88.615M31.2933 90.451L32.5 88.615M32.5 88.615V69.6943C32.5 69.5452 32.4833 69.3965 32.4503 69.2511M32.5 88.615L32.4503 69.2511M32.4503 69.2511L23.1561 28.3565M32.4503 69.2511L23.1561 28.3565M23.1561 28.3565C22.2343 24.3006 24.7748 20.2655 28.8306 19.3436L23.1561 28.3565Z" stroke="#2DA8FF" stroke-width="4" stroke-linejoin="round"/>

</svg>


